<svg xmlns="http://www.w3.org/2000/svg" xmlns:xlink="http://www.w3.org/1999/xlink" preserveAspectRatio="xMidYMid" width="15" height="16.062" viewBox="0 0 15 16.062">
<defs>
<g/>
<clipPath id="e9ba09ce9f">
<path d="M 81 170 L 104 170 L 104 209 L 81 209 Z M 81 170 " clip-rule="nonzero"/>
</clipPath><clipPath id="61cc95d966"><path d="M 59 160.214844 L 104 160.214844 L 104 220.214844 L 59 220.214844 Z M 59 160.214844 " clip-rule="nonzero"/>
</clipPath>
<clipPath id="9e894cfb60"><path class="cls-1"   d="M 75.253906 174.65625 L 107.503906 174.65625 L 107.503906 205.40625 L 75.253906 205.40625 Z M 75.253906 174.65625 " clip-rule="nonzero"/>
</clipPath></defs><g clip-path="url(#e9ba09ce9f)"><path fill="#ff6f00" d="M 133.652344 185.410156 C 132.953125 185.410156 132.269531 185.527344 131.609375 185.761719 C 130.625 186.039062 129.734375 186.496094 128.9375 187.132812 L 128.9375 185.972656 L 126.0625 185.972656 L 126.0625 197.25 L 128.9375 198.777344 L 128.9375 192.3125 C 128.976562 191.308594 129.230469 190.363281 129.699219 189.476562 C 130.171875 188.589844 130.808594 187.847656 131.613281 187.253906 C 132.300781 186.574219 133.125 186.199219 134.085938 186.128906 C 134.492188 186.136719 134.863281 186.25 135.207031 186.464844 C 135.609375 186.621094 135.828125 186.917969 135.867188 187.347656 C 135.847656 187.707031 135.746094 188.039062 135.558594 188.347656 C 135.375 188.65625 135.128906 188.902344 134.820312 189.085938 C 134.246094 189.519531 133.601562 189.773438 132.886719 189.847656 L 135.132812 192.4375 C 135.851562 192.078125 136.480469 191.601562 137.019531 191.003906 C 137.632812 190.464844 137.988281 189.789062 138.082031 188.976562 C 138.082031 188.253906 137.839844 187.628906 137.34375 187.101562 C 136.886719 186.558594 136.332031 186.140625 135.6875 185.84375 C 135.039062 185.550781 134.363281 185.40625 133.652344 185.410156 Z M 208.925781 183.492188 L 208.957031 181.660156 L 159.304688 181.660156 L 159.304688 179.84375 C 159.292969 178.890625 159.179688 177.949219 158.972656 177.023438 C 158.5 174.628906 157.414062 172.5625 155.710938 170.820312 L 152.523438 170.820312 L 153.464844 171.902344 C 154.652344 173.25 155.535156 174.773438 156.117188 176.476562 C 156.503906 177.578125 156.707031 178.710938 156.722656 179.878906 L 156.722656 181.671875 L 116.964844 181.671875 L 116.964844 178.457031 L 114.269531 176.558594 L 114.269531 181.664062 L 81.316406 181.664062 L 81.316406 183.492188 L 84.382812 183.492188 L 84.382812 187.4375 L 84.308594 187.527344 C 84.058594 187.753906 83.867188 187.921875 83.738281 188.035156 L 83.738281 189.167969 C 84.308594 188.964844 84.890625 188.734375 85.492188 188.480469 C 86.902344 187.894531 88.375 187.59375 89.90625 187.582031 C 90.492188 187.539062 91.058594 187.625 91.605469 187.839844 C 92.121094 188.121094 92.546875 188.5 92.882812 188.984375 L 92.882812 190.386719 C 91.851562 189.652344 90.703125 189.316406 89.441406 189.378906 C 88.332031 189.351562 87.261719 189.550781 86.234375 189.96875 C 85.207031 190.390625 84.304688 191.003906 83.53125 191.800781 C 82.773438 192.46875 82.363281 193.304688 82.304688 194.316406 C 82.304688 195.09375 82.5625 195.777344 83.082031 196.355469 C 83.65625 197.003906 84.34375 197.496094 85.140625 197.828125 C 85.941406 198.160156 86.773438 198.296875 87.636719 198.246094 C 88.945312 198.273438 90.199219 198.015625 91.390625 197.46875 C 91.730469 197.308594 92.164062 197.070312 92.691406 196.757812 C 92.859375 196.933594 92.925781 197.140625 92.886719 197.382812 C 94.265625 197.960938 95.058594 198.292969 95.269531 198.371094 L 95.269531 192.496094 C 95.269531 189.90625 95.054688 188.183594 94.625 187.332031 C 93.984375 186.050781 92.542969 185.410156 90.300781 185.410156 C 89.75 185.410156 89.207031 185.460938 88.667969 185.5625 C 87.9375 185.675781 87.214844 185.828125 86.5 186.023438 C 86.488281 186.019531 86.480469 186.011719 86.46875 186.003906 C 86.4375 185.96875 86.398438 185.945312 86.347656 185.945312 L 86.347656 183.492188 L 107.929688 183.492188 L 107.929688 186.097656 C 106.601562 185.691406 105.246094 185.453125 103.859375 185.382812 C 102.949219 185.394531 102.058594 185.515625 101.179688 185.75 C 98.863281 186.351562 97.710938 187.507812 97.722656 189.222656 C 97.722656 190.089844 97.972656 190.878906 98.46875 191.585938 C 98.878906 192.285156 99.433594 192.839844 100.132812 193.25 C 100.832031 193.65625 101.585938 193.863281 102.394531 193.871094 C 103.136719 193.773438 103.863281 193.609375 104.578125 193.382812 C 105.75 193.015625 106.941406 192.742188 108.152344 192.558594 C 109.351562 192.558594 109.949219 192.945312 109.949219 193.71875 C 109.925781 194.011719 109.828125 194.277344 109.652344 194.515625 C 109.476562 194.75 109.25 194.921875 108.976562 195.027344 C 107.648438 195.765625 106.226562 196.132812 104.710938 196.125 C 103.679688 196.050781 102.714844 195.757812 101.816406 195.25 C 101.09375 194.824219 100.324219 194.53125 99.503906 194.375 C 99.316406 194.332031 99.128906 194.335938 98.941406 194.382812 C 98.753906 194.429688 98.585938 194.515625 98.4375 194.640625 C 98.292969 194.765625 98.179688 194.917969 98.105469 195.097656 C 98.027344 195.273438 97.996094 195.460938 98.007812 195.65625 C 98.003906 195.992188 98.085938 196.308594 98.253906 196.597656 C 98.425781 196.890625 98.65625 197.117188 98.949219 197.28125 C 100.28125 198.003906 101.703125 198.339844 103.214844 198.296875 C 103.769531 198.539062 104.144531 198.945312 104.339844 199.519531 C 104.679688 200.179688 105.085938 200.792969 105.566406 201.363281 C 106.109375 201.914062 106.765625 202.183594 107.539062 202.167969 C 108.21875 202.246094 108.851562 202.113281 109.441406 201.761719 L 107.929688 199.25 C 107.707031 199.308594 107.484375 199.339844 107.253906 199.339844 C 106.417969 199.261719 105.738281 198.894531 105.203125 198.242188 C 106.035156 198.171875 106.820312 197.953125 107.570312 197.589844 C 109.566406 196.664062 110.5625 195.394531 110.5625 193.78125 C 110.578125 193.097656 110.375 192.484375 109.957031 191.949219 C 109.480469 191.382812 108.898438 190.957031 108.21875 190.667969 C 107.539062 190.382812 106.828125 190.265625 106.09375 190.320312 C 105.464844 190.292969 104.847656 190.351562 104.238281 190.503906 C 103.410156 190.800781 102.730469 191.042969 102.203125 191.234375 C 101.566406 191.503906 100.902344 191.65625 100.210938 191.691406 C 100.042969 191.71875 99.875 191.707031 99.710938 191.65625 C 99.546875 191.605469 99.402344 191.519531 99.28125 191.398438 C 99.15625 191.277344 99.066406 191.136719 99.007812 190.972656 C 98.949219 190.8125 98.933594 190.644531 98.953125 190.472656 C 98.96875 190.144531 99.070312 189.847656 99.261719 189.578125 C 99.453125 189.3125 99.699219 189.117188 100.003906 188.996094 C 101.453125 188.28125 102.984375 187.949219 104.597656 188.003906 C 105.507812 188.023438 106.40625 188.144531 107.289062 188.371094 C 108.183594 188.546875 109.03125 188.851562 109.835938 189.285156 L 109.835938 183.492188 L 114.28125 183.492188 L 114.28125 194.609375 C 114.289062 195.21875 114.460938 195.777344 114.785156 196.289062 C 115.105469 196.894531 115.558594 197.371094 116.148438 197.722656 C 116.734375 198.074219 117.367188 198.246094 118.050781 198.238281 C 120.453125 198.25 122.230469 196.960938 123.378906 194.371094 L 120.371094 192.617188 C 120.371094 195.746094 119.628906 197.3125 118.140625 197.308594 C 117.761719 197.292969 117.480469 197.117188 117.304688 196.777344 C 117.089844 196.476562 116.980469 196.140625 116.976562 195.769531 L 116.976562 183.492188 L 149.0625 183.492188 L 149.0625 185.914062 C 149.0625 185.996094 149.03125 186.035156 148.972656 186.035156 C 147.960938 185.722656 146.929688 185.53125 145.875 185.472656 C 144.691406 185.4375 143.609375 185.753906 142.625 186.417969 C 141.863281 186.960938 141.222656 187.625 140.710938 188.410156 C 140.15625 189.183594 139.859375 190.046875 139.828125 191.003906 C 139.875 192.003906 140.140625 192.945312 140.617188 193.828125 C 141.097656 194.710938 141.742188 195.445312 142.550781 196.03125 C 143.238281 196.691406 144.015625 197.210938 144.886719 197.589844 C 145.753906 197.96875 146.664062 198.1875 147.613281 198.238281 C 148.722656 198.246094 149.765625 197.984375 150.742188 197.445312 C 151.214844 197.207031 151.648438 196.90625 152.035156 196.542969 C 152.421875 196.179688 152.75 195.769531 153.019531 195.3125 C 153.289062 194.851562 153.488281 194.363281 153.617188 193.847656 C 153.746094 193.332031 153.800781 192.808594 153.777344 192.273438 C 153.855469 191.089844 153.550781 190.011719 152.867188 189.042969 C 152.410156 188.640625 152.011719 188.1875 151.671875 187.683594 L 151.671875 183.492188 L 156.742188 183.492188 L 156.742188 197.320312 C 157.222656 197.527344 157.695312 197.761719 158.148438 198.023438 L 158.925781 198.433594 C 159.054688 198.5 159.183594 198.558594 159.316406 198.601562 L 159.316406 183.492188 L 171.140625 183.492188 L 171.140625 185.914062 C 171.140625 185.996094 171.109375 186.035156 171.050781 186.035156 C 170.039062 185.722656 169.007812 185.53125 167.953125 185.472656 C 166.769531 185.4375 165.6875 185.753906 164.703125 186.417969 C 163.9375 186.960938 163.300781 187.625 162.789062 188.410156 C 162.230469 189.183594 161.9375 190.046875 161.902344 191.003906 C 161.953125 192.003906 162.21875 192.945312 162.695312 193.828125 C 163.175781 194.710938 163.816406 195.445312 164.628906 196.03125 C 165.3125 196.691406 166.09375 197.210938 166.960938 197.589844 C 167.832031 197.96875 168.742188 198.1875 169.691406 198.238281 C 170.800781 198.246094 171.84375 197.984375 172.820312 197.445312 C 173.292969 197.207031 173.726562 196.90625 174.113281 196.542969 C 174.5 196.179688 174.828125 195.769531 175.097656 195.3125 C 175.367188 194.851562 175.566406 194.367188 175.695312 193.847656 C 175.824219 193.332031 175.878906 192.808594 175.855469 192.273438 C 175.933594 191.089844 175.628906 190.011719 174.945312 189.042969 C 174.488281 188.640625 174.089844 188.1875 173.746094 187.683594 L 173.746094 183.492188 L 184.371094 183.492188 L 184.371094 185.183594 C 184.359375 185.328125 184.28125 185.417969 184.144531 185.457031 C 180.402344 185.457031 178.535156 186.628906 178.535156 188.96875 C 178.535156 189.667969 178.738281 190.304688 179.148438 190.875 L 179.878906 191.925781 L 179.851562 192.09375 C 179.238281 192.164062 178.691406 192.398438 178.21875 192.792969 C 177.671875 193.136719 177.375 193.628906 177.335938 194.273438 C 177.335938 195.25 178.113281 196.300781 179.671875 197.425781 C 180.226562 197.894531 180.863281 198.164062 181.585938 198.234375 C 182.835938 198.082031 184.015625 197.714844 185.128906 197.128906 C 186.242188 196.546875 187.425781 196.175781 188.671875 196.023438 C 189.429688 195.996094 190.058594 196.269531 190.558594 196.839844 C 191.058594 197.417969 191.300781 198.089844 191.277344 198.855469 C 191.257812 199.378906 191.089844 199.847656 190.769531 200.257812 C 190.425781 200.789062 189.972656 201.203125 189.414062 201.496094 C 188.859375 201.792969 188.261719 201.933594 187.632812 201.921875 C 186.777344 201.789062 186.011719 201.445312 185.34375 200.894531 C 184.585938 200.347656 183.796875 199.847656 182.980469 199.398438 C 182.113281 199.023438 181.210938 198.84375 180.269531 198.867188 C 178.789062 198.847656 177.449219 199.265625 176.242188 200.132812 C 175.191406 200.882812 174.339844 201.816406 173.683594 202.933594 C 172.988281 204.046875 172.628906 205.261719 172.605469 206.578125 C 172.597656 206.835938 172.617188 207.097656 172.667969 207.351562 C 173.09375 206.453125 173.628906 205.628906 174.277344 204.878906 C 174.925781 204.125 175.660156 203.472656 176.484375 202.921875 C 177.308594 202.371094 178.1875 201.9375 179.128906 201.625 C 180.066406 201.3125 181.03125 201.128906 182.019531 201.078125 C 183.523438 201.179688 184.933594 201.605469 186.242188 202.355469 C 187.316406 202.992188 188.472656 203.378906 189.710938 203.515625 C 190.140625 203.519531 190.550781 203.449219 190.953125 203.300781 C 190.953125 203.332031 190.9375 203.359375 190.9375 203.394531 C 191.023438 204.191406 191.332031 204.886719 191.867188 205.480469 C 193.394531 207.480469 195.960938 208.480469 199.574219 208.480469 C 201.609375 208.527344 203.472656 207.972656 205.15625 206.820312 C 205.957031 206.324219 206.589844 205.660156 207.046875 204.835938 C 207.503906 204.007812 207.734375 203.121094 207.730469 202.175781 L 207.730469 186.570312 L 204.632812 185.472656 L 204.632812 191.214844 C 204.609375 192.121094 204.355469 192.953125 203.871094 193.714844 C 203.414062 194.484375 202.820312 195.128906 202.085938 195.644531 C 201.375 196.207031 200.5625 196.476562 199.660156 196.453125 C 199.15625 196.480469 198.671875 196.398438 198.207031 196.210938 C 197.742188 196.019531 197.335938 195.742188 196.996094 195.371094 C 196.464844 194.484375 196.238281 193.523438 196.320312 192.488281 L 196.320312 183.488281 L 208.921875 183.488281 Z M 90.878906 195.039062 C 89.316406 196.003906 87.621094 196.476562 85.789062 196.457031 C 84.351562 196.457031 83.53125 196.085938 83.320312 195.34375 C 83.40625 194.75 83.660156 194.242188 84.085938 193.820312 C 84.699219 193.054688 85.453125 192.46875 86.34375 192.0625 C 87.234375 191.65625 88.167969 191.46875 89.144531 191.503906 C 89.894531 191.535156 90.617188 191.683594 91.316406 191.945312 C 92.363281 192.300781 92.886719 192.703125 92.886719 193.152344 C 92.886719 193.597656 92.21875 194.226562 90.878906 195.039062 Z M 149.199219 194.765625 C 148.054688 195.859375 146.699219 196.46875 145.125 196.59375 C 144.597656 196.589844 144.101562 196.449219 143.644531 196.183594 C 143.171875 195.980469 142.792969 195.664062 142.5 195.242188 C 142.207031 194.816406 142.050781 194.347656 142.027344 193.832031 C 142.015625 192.839844 142.230469 191.894531 142.667969 191.003906 C 143.109375 190.113281 143.730469 189.371094 144.527344 188.78125 C 145.664062 187.753906 146.996094 187.1875 148.523438 187.085938 C 148.933594 187.105469 149.328125 187.195312 149.707031 187.363281 C 149.996094 187.464844 150.265625 187.613281 150.507812 187.804688 C 150.75 188 150.953125 188.226562 151.121094 188.488281 C 151.289062 188.746094 151.410156 189.027344 151.488281 189.328125 C 151.5625 189.632812 151.585938 189.9375 151.5625 190.246094 C 151.539062 191.144531 151.320312 191.988281 150.90625 192.785156 C 150.492188 193.578125 149.921875 194.238281 149.199219 194.765625 Z M 171.269531 194.765625 C 170.128906 195.859375 168.773438 196.46875 167.199219 196.59375 C 166.671875 196.589844 166.175781 196.449219 165.71875 196.183594 C 165.246094 195.980469 164.863281 195.664062 164.574219 195.242188 C 164.28125 194.816406 164.125 194.347656 164.101562 193.832031 C 164.089844 192.835938 164.304688 191.894531 164.746094 191.003906 C 165.1875 190.109375 165.808594 189.371094 166.605469 188.78125 C 167.746094 187.753906 169.078125 187.1875 170.601562 187.085938 C 171.015625 187.105469 171.40625 187.195312 171.785156 187.363281 C 172.078125 187.464844 172.34375 187.613281 172.585938 187.804688 C 172.828125 188 173.035156 188.226562 173.203125 188.488281 C 173.371094 188.746094 173.492188 189.027344 173.566406 189.328125 C 173.640625 189.632812 173.667969 189.9375 173.640625 190.246094 C 173.621094 191.144531 173.402344 191.988281 172.984375 192.785156 C 172.570312 193.578125 172 194.238281 171.273438 194.765625 Z M 181.703125 187.710938 C 182.550781 186.988281 183.535156 186.617188 184.648438 186.601562 C 184.90625 186.554688 185.164062 186.574219 185.414062 186.648438 C 185.664062 186.726562 185.882812 186.855469 186.074219 187.035156 C 186.261719 187.21875 186.402344 187.433594 186.492188 187.679688 C 186.582031 187.925781 186.609375 188.179688 186.582031 188.441406 C 186.585938 189.234375 186.332031 189.929688 185.816406 190.53125 C 185.363281 191.058594 184.835938 191.492188 184.230469 191.839844 C 183.644531 192.230469 183 192.4375 182.300781 192.464844 C 181.734375 192.464844 181.246094 192.269531 180.839844 191.871094 C 180.410156 191.488281 180.199219 191.011719 180.207031 190.4375 C 180.222656 189.890625 180.367188 189.375 180.628906 188.894531 C 180.894531 188.414062 181.253906 188.019531 181.707031 187.710938 Z M 199.71875 197.140625 C 202.535156 197.140625 204.265625 196.605469 204.910156 195.527344 L 204.910156 201.730469 C 204.929688 202.84375 204.601562 203.835938 203.925781 204.714844 C 203.175781 205.640625 202.257812 206.339844 201.167969 206.816406 C 200.078125 207.292969 198.941406 207.492188 197.757812 207.414062 C 196.734375 207.457031 195.765625 207.242188 194.855469 206.773438 C 194.335938 206.554688 193.894531 206.226562 193.53125 205.796875 C 193.171875 205.363281 192.929688 204.871094 192.804688 204.320312 C 192.84375 203.945312 192.984375 203.617188 193.230469 203.328125 C 193.472656 203.042969 193.773438 202.851562 194.136719 202.75 C 195.605469 202.101562 197.140625 201.730469 198.746094 201.636719 L 196.847656 199.046875 C 195.464844 199.058594 194.191406 199.441406 193.027344 200.191406 C 192.808594 200.335938 192.601562 200.492188 192.402344 200.664062 C 192.363281 199.855469 192.246094 199.058594 192.054688 198.273438 C 191.851562 197.183594 191.429688 196.1875 190.785156 195.285156 C 190.488281 194.828125 190.101562 194.472656 189.625 194.214844 C 189.144531 193.957031 188.636719 193.832031 188.09375 193.839844 C 186.453125 193.996094 184.917969 194.476562 183.480469 195.285156 C 182.460938 195.886719 181.371094 196.289062 180.203125 196.488281 C 179.863281 196.480469 179.566406 196.367188 179.308594 196.148438 C 179.027344 195.953125 178.875 195.6875 178.855469 195.347656 C 178.894531 195.007812 179.035156 194.71875 179.277344 194.480469 C 180.003906 193.574219 181.367188 193.125 183.363281 193.121094 C 184.539062 193.1875 185.6875 193.023438 186.804688 192.632812 C 187.070312 192.519531 187.308594 192.363281 187.527344 192.171875 C 187.746094 191.980469 187.929688 191.757812 188.074219 191.507812 C 188.222656 191.257812 188.328125 190.992188 188.394531 190.707031 C 188.457031 190.421875 188.476562 190.136719 188.449219 189.847656 C 188.457031 189.546875 188.421875 189.253906 188.347656 188.964844 C 188.273438 188.800781 188.1875 188.640625 188.09375 188.488281 C 187.976562 188.324219 187.914062 188.144531 187.898438 187.941406 C 187.925781 187.761719 188.019531 187.628906 188.183594 187.546875 C 188.328125 187.429688 188.492188 187.363281 188.675781 187.347656 C 188.890625 187.371094 189.082031 187.453125 189.246094 187.597656 C 189.410156 187.738281 189.519531 187.914062 189.574219 188.125 C 189.75 188.53125 189.84375 188.960938 189.859375 189.40625 L 191.429688 187.574219 C 191.332031 187.203125 191.164062 186.867188 190.925781 186.566406 C 190.507812 185.902344 189.910156 185.535156 189.128906 185.472656 C 188.824219 185.480469 188.554688 185.585938 188.316406 185.777344 L 187.742188 186.46875 C 187.59375 186.71875 187.378906 186.878906 187.097656 186.949219 C 186.945312 186.855469 186.832031 186.730469 186.757812 186.566406 C 186.683594 186.40625 186.664062 186.238281 186.695312 186.0625 L 186.695312 183.492188 L 193.445312 183.492188 L 193.445312 191.925781 C 193.433594 192.945312 193.730469 193.859375 194.339844 194.671875 C 194.976562 195.507812 195.769531 196.148438 196.722656 196.585938 C 197.675781 197.023438 198.675781 197.207031 199.722656 197.144531 Z M 199.71875 197.140625 " fill-opacity="1" fill-rule="evenodd"/></g><g clip-path="url(#61cc95d966)"><path fill="#ff6f00" d="M 59.066406 189.605469 L 70.140625 195.726562 L 70.140625 184.707031 Z M 63.988281 171.238281 L 70.144531 182.257812 L 76.300781 173.683594 Z M 79.988281 160.214844 L 78.753906 172.460938 L 88.601562 168.785156 Z M 92.292969 167.5625 L 103.367188 172.460938 L 103.367188 160.214844 Z M 68.910156 198.171875 L 63.988281 209.191406 L 76.292969 206.746094 Z M 78.757812 207.96875 L 79.988281 220.214844 L 88.601562 211.644531 Z M 92.292969 211.640625 L 102.136719 220.214844 L 103.367188 206.746094 Z M 92.292969 211.640625 " fill-opacity="1" fill-rule="evenodd"/></g><path fill="#ff6f00" d="M 90.523438 207.050781 C 89.820312 207.046875 89.121094 206.996094 88.425781 206.902344 C 87.730469 206.8125 87.042969 206.675781 86.363281 206.496094 C 85.683594 206.3125 85.019531 206.09375 84.367188 205.828125 C 83.71875 205.566406 83.085938 205.261719 82.472656 204.917969 C 81.859375 204.574219 81.269531 204.191406 80.707031 203.773438 C 80.140625 203.355469 79.601562 202.902344 79.09375 202.417969 C 78.585938 201.933594 78.109375 201.417969 77.664062 200.871094 C 77.222656 200.324219 76.8125 199.753906 76.441406 199.15625 C 76.066406 198.558594 75.734375 197.9375 75.4375 197.296875 C 75.140625 196.660156 74.886719 196.003906 74.675781 195.332031 C 74.460938 194.660156 74.292969 193.976562 74.164062 193.28125 C 74.035156 192.589844 73.949219 191.890625 73.910156 191.1875 C 73.871094 190.480469 73.875 189.777344 73.921875 189.074219 C 73.96875 188.371094 74.058594 187.671875 74.195312 186.980469 C 74.328125 186.289062 74.507812 185.609375 74.726562 184.9375 C 74.949219 184.269531 75.207031 183.613281 75.511719 182.976562 C 75.8125 182.339844 76.152344 181.726562 76.53125 181.132812 C 76.910156 180.539062 77.324219 179.96875 77.773438 179.429688 C 78.222656 178.886719 78.703125 178.375 79.21875 177.894531 C 79.730469 177.414062 80.273438 176.96875 80.84375 176.554688 C 81.414062 176.144531 82.003906 175.769531 82.621094 175.429688 C 83.238281 175.09375 83.875 174.796875 84.527344 174.539062 C 85.179688 174.28125 85.847656 174.066406 86.527344 173.894531 C 87.207031 173.71875 87.898438 173.589844 88.59375 173.503906 C 89.289062 173.417969 89.988281 173.375 90.691406 173.378906 C 91.394531 173.382812 92.09375 173.425781 92.789062 173.519531 C 93.484375 173.609375 94.171875 173.742188 94.851562 173.917969 C 95.53125 174.097656 96.199219 174.316406 96.851562 174.578125 C 97.5 174.839844 98.136719 175.140625 98.75 175.480469 C 99.363281 175.820312 99.953125 176.199219 100.519531 176.617188 C 101.089844 177.03125 101.625 177.480469 102.136719 177.964844 C 102.648438 178.449219 103.125 178.964844 103.574219 179.507812 L 103.574219 176.824219 C 103.140625 176.398438 102.6875 175.996094 102.214844 175.617188 C 101.738281 175.238281 101.25 174.882812 100.742188 174.554688 C 100.234375 174.222656 99.714844 173.917969 99.175781 173.636719 C 98.640625 173.359375 98.089844 173.105469 97.527344 172.878906 C 96.964844 172.652344 96.394531 172.457031 95.8125 172.285156 C 95.234375 172.117188 94.644531 171.972656 94.050781 171.863281 C 93.457031 171.75 92.855469 171.667969 92.253906 171.613281 C 91.652344 171.558594 91.046875 171.535156 90.441406 171.542969 C 89.839844 171.546875 89.234375 171.582031 88.632812 171.648438 C 88.03125 171.714844 87.433594 171.808594 86.84375 171.933594 C 86.25 172.054688 85.664062 172.207031 85.089844 172.386719 C 84.511719 172.570312 83.941406 172.777344 83.386719 173.015625 C 82.828125 173.25 82.285156 173.515625 81.753906 173.804688 C 81.21875 174.09375 80.703125 174.410156 80.203125 174.75 C 79.703125 175.089844 79.21875 175.457031 78.753906 175.84375 C 78.289062 176.234375 77.84375 176.640625 77.417969 177.074219 C 76.992188 177.507812 76.585938 177.957031 76.203125 178.429688 C 75.824219 178.902344 75.464844 179.390625 75.128906 179.894531 C 74.796875 180.402344 74.488281 180.925781 74.203125 181.460938 C 73.921875 182 73.664062 182.546875 73.433594 183.109375 C 73.203125 183.671875 73 184.246094 72.824219 184.828125 C 72.652344 185.410156 72.503906 185.996094 72.386719 186.59375 C 72.269531 187.191406 72.183594 187.789062 72.125 188.394531 C 72.066406 189 72.035156 189.605469 72.035156 190.214844 C 72.035156 190.824219 72.066406 191.429688 72.125 192.035156 C 72.183594 192.640625 72.269531 193.238281 72.386719 193.835938 C 72.503906 194.433594 72.652344 195.019531 72.824219 195.601562 C 73 196.183594 73.203125 196.757812 73.433594 197.320312 C 73.664062 197.882812 73.921875 198.429688 74.203125 198.96875 C 74.488281 199.503906 74.796875 200.027344 75.128906 200.535156 C 75.464844 201.039062 75.824219 201.527344 76.203125 202 C 76.585938 202.472656 76.992188 202.921875 77.417969 203.355469 C 77.84375 203.789062 78.289062 204.199219 78.753906 204.585938 C 79.21875 204.972656 79.703125 205.339844 80.203125 205.679688 C 80.703125 206.019531 81.21875 206.335938 81.753906 206.625 C 82.285156 206.914062 82.828125 207.179688 83.386719 207.414062 C 83.941406 207.652344 84.511719 207.859375 85.089844 208.042969 C 85.664062 208.222656 86.25 208.375 86.84375 208.5 C 87.433594 208.621094 88.03125 208.714844 88.632812 208.78125 C 89.234375 208.847656 89.839844 208.882812 90.441406 208.886719 C 91.046875 208.894531 91.652344 208.871094 92.253906 208.816406 C 92.855469 208.761719 93.457031 208.679688 94.050781 208.566406 C 94.644531 208.457031 95.234375 208.3125 95.8125 208.144531 C 96.394531 207.976562 96.964844 207.777344 97.527344 207.550781 C 98.089844 207.324219 98.640625 207.074219 99.175781 206.792969 C 99.714844 206.511719 100.234375 206.207031 100.742188 205.875 C 101.25 205.546875 101.738281 205.191406 102.214844 204.8125 C 102.6875 204.433594 103.140625 204.03125 103.574219 203.605469 L 103.574219 200.921875 C 102.777344 201.882812 101.882812 202.746094 100.898438 203.507812 C 99.914062 204.269531 98.855469 204.917969 97.726562 205.449219 C 96.601562 205.976562 95.429688 206.378906 94.210938 206.648438 C 92.996094 206.917969 91.765625 207.054688 90.523438 207.050781 Z M 90.523438 207.050781 " fill-opacity="1" fill-rule="evenodd"/><g clip-path="url(#9e894cfb60)"><path fill="#ffffff" d="M 90.519531 174.65625 L 92.242188 174.65625 C 96.289062 174.65625 100.171875 176.277344 103.035156 179.160156 C 105.894531 182.042969 107.503906 185.953125 107.503906 190.03125 C 107.503906 194.109375 105.894531 198.019531 103.035156 200.902344 C 100.171875 203.789062 96.289062 205.40625 92.242188 205.40625 L 90.519531 205.40625 C 86.472656 205.40625 82.589844 203.789062 79.726562 200.902344 C 76.867188 198.019531 75.257812 194.109375 75.257812 190.03125 C 75.257812 185.953125 76.867188 182.042969 79.726562 179.160156 C 82.589844 176.277344 86.472656 174.65625 90.519531 174.65625 " fill-opacity="1" fill-rule="nonzero"/></g><g fill="#ff6f00" fill-opacity="1"><g transform="translate(77.798628, 198.328537)"><g><path d="M 14.65625 -14.140625 L -0.140625 -14.140625 L -0.140625 -15.890625 L 14.65625 -15.890625 Z M 13.453125 -8.875 C 13.453125 -8.300781 13.101562 -7.648438 12.40625 -6.921875 C 11.820312 -6.304688 11.207031 -5.847656 10.5625 -5.546875 L 8.359375 -8.046875 C 9.023438 -8.097656 9.65625 -8.34375 10.25 -8.78125 C 10.9375 -9.257812 11.28125 -9.8125 11.28125 -10.4375 C 11.28125 -10.769531 11.066406 -11.054688 10.640625 -11.296875 C 10.265625 -11.503906 9.894531 -11.609375 9.53125 -11.609375 C 8.78125 -11.609375 7.976562 -11.25 7.125 -10.53125 C 5.375 -9.0625 4.5 -7.441406 4.5 -5.671875 L 4.5 0.546875 L 1.6875 -0.921875 L 1.6875 -11.765625 L 4.53125 -11.765625 L 4.53125 -10.65625 C 4.945312 -11.070312 5.816406 -11.507812 7.140625 -11.96875 C 7.773438 -12.195312 8.4375 -12.3125 9.125 -12.3125 C 10.539062 -12.3125 11.742188 -11.765625 12.734375 -10.671875 C 13.210938 -10.148438 13.453125 -9.550781 13.453125 -8.875 Z M 13.453125 -8.875 "/></g></g><g transform="translate(92.198041, 198.328537)"><g><path d="M 4.953125 -17.4375 C 4.910156 -17.394531 4.796875 -17.375 4.609375 -17.375 C 4.453125 -17.375 4.316406 -17.394531 4.203125 -17.4375 L 3.25 -19.375 C 2.863281 -19.988281 2.332031 -20.40625 1.65625 -20.625 C 0.988281 -20.851562 0.578125 -21.097656 0.421875 -21.359375 C 0.273438 -21.804688 -0.00390625 -22.492188 -0.421875 -23.421875 L -0.421875 -23.765625 L 0.140625 -23.765625 C 0.898438 -23.523438 1.515625 -23.300781 1.984375 -23.09375 C 2.753906 -22.757812 3.269531 -22.367188 3.53125 -21.921875 C 3.675781 -21.671875 3.898438 -21.046875 4.203125 -20.046875 C 4.484375 -19.097656 4.722656 -18.4375 4.921875 -18.0625 C 4.941406 -17.882812 4.953125 -17.675781 4.953125 -17.4375 Z M 5.8125 -14.140625 L -0.140625 -14.140625 L -0.140625 -15.890625 L 5.8125 -15.890625 Z M 4.140625 0.34375 L 1.6875 -1.03125 L 1.6875 -12.328125 L 4.140625 -12.328125 Z M 4.140625 0.34375 "/></g></g><g transform="translate(97.896283, 198.328537)"><g><path d="M 15.515625 -14.140625 L 12.453125 -14.140625 L 12.453125 -10.046875 C 13.097656 -9.453125 13.488281 -9.066406 13.625 -8.890625 C 13.863281 -8.578125 14.113281 -8.09375 14.375 -7.4375 L 12.421875 -7.4375 C 12.421875 -8.5 12.117188 -9.328125 11.515625 -9.921875 C 10.921875 -10.523438 10.09375 -10.828125 9.03125 -10.828125 C 7.914062 -10.828125 6.875 -10.519531 5.90625 -9.90625 C 4.976562 -9.320312 4.226562 -8.53125 3.65625 -7.53125 C 3.125 -6.582031 2.859375 -5.664062 2.859375 -4.78125 C 2.859375 -3.726562 3.234375 -2.929688 3.984375 -2.390625 C 4.648438 -1.898438 5.523438 -1.65625 6.609375 -1.65625 C 8.410156 -1.65625 9.671875 -2.15625 10.390625 -3.15625 L 13.5 -3.15625 C 13.238281 -2.09375 12.269531 -1.203125 10.59375 -0.484375 C 9.84375 -0.160156 9.144531 0 8.5 0 C 7.238281 0 5.96875 -0.351562 4.6875 -1.0625 C 3.46875 -1.738281 2.460938 -2.609375 1.671875 -3.671875 C 0.878906 -4.734375 0.484375 -5.78125 0.484375 -6.8125 C 0.484375 -7.59375 0.832031 -8.476562 1.53125 -9.46875 C 2.976562 -11.53125 4.75 -12.5625 6.84375 -12.5625 C 8.21875 -12.5625 9.304688 -12.273438 10.109375 -11.703125 L 10.109375 -14.140625 L -0.234375 -14.140625 L -0.234375 -15.890625 L 15.515625 -15.890625 Z M 15.515625 -14.140625 "/></g></g><g transform="translate(113.189251, 198.328537)"><g><path d="M 16.078125 -14.140625 L 4.265625 -14.140625 L 4.265625 -9.734375 C 5.328125 -10.890625 6.3125 -11.632812 7.21875 -11.96875 C 7.726562 -12.15625 8.300781 -12.25 8.9375 -12.25 C 11.320312 -12.25 13.101562 -11.078125 14.28125 -8.734375 C 14.800781 -7.703125 15.0625 -6.691406 15.0625 -5.703125 C 15.0625 -3.878906 14.3125 -2.238281 12.8125 -0.78125 C 12.320312 -0.289062 11.953125 0.046875 11.703125 0.234375 L 9.296875 -1.203125 C 9.898438 -1.835938 10.59375 -2.617188 11.375 -3.546875 C 12.238281 -4.585938 12.675781 -5.90625 12.6875 -7.5 C 12.695312 -8.445312 12.484375 -9.238281 12.046875 -9.875 C 11.546875 -10.613281 10.84375 -10.972656 9.9375 -10.953125 C 9.09375 -10.929688 8.191406 -10.613281 7.234375 -10 C 6.378906 -9.457031 5.664062 -8.804688 5.09375 -8.046875 C 4.476562 -7.222656 4.171875 -6.429688 4.171875 -5.671875 L 4.171875 0.140625 L 1.4375 -1.3125 L 1.4375 -14.140625 L -0.171875 -14.140625 L -0.171875 -15.890625 L 1.4375 -15.890625 C 1.4375 -18.765625 0.6875 -21.21875 -0.8125 -23.25 C -1.707031 -24.46875 -2.535156 -25.328125 -3.296875 -25.828125 L -0.34375 -25.859375 C 1.300781 -24.953125 2.609375 -23.015625 3.578125 -20.046875 C 4.035156 -18.628906 4.265625 -17.242188 4.265625 -15.890625 L 16.078125 -15.890625 Z M 16.078125 -14.140625 "/></g></g><g transform="translate(129.112102, 198.328537)"><g><path d="M 14.3125 -14.140625 L 4.5625 -14.140625 L 4.5625 -11.796875 C 4.59375 -11.796875 4.628906 -11.773438 4.671875 -11.734375 C 4.710938 -11.691406 4.75 -11.671875 4.78125 -11.671875 C 4.695312 -11.671875 4.648438 -11.675781 4.640625 -11.6875 C 4.640625 -11.738281 5.367188 -11.894531 6.828125 -12.15625 C 7.359375 -12.257812 7.890625 -12.3125 8.421875 -12.3125 C 10.617188 -12.3125 12.03125 -11.691406 12.65625 -10.453125 C 13.070312 -9.640625 13.28125 -7.988281 13.28125 -5.5 L 13.28125 0.140625 C 13.082031 0.0664062 12.304688 -0.25 10.953125 -0.8125 C 10.953125 -1.125 10.890625 -1.320312 10.765625 -1.40625 C 10.242188 -1.101562 9.820312 -0.875 9.5 -0.71875 C 8.4375 -0.21875 7.207031 0.03125 5.8125 0.03125 C 3.894531 0.03125 2.410156 -0.570312 1.359375 -1.78125 C 0.847656 -2.375 0.59375 -3.03125 0.59375 -3.75 C 0.59375 -4.5625 0.992188 -5.367188 1.796875 -6.171875 C 3.347656 -7.722656 5.28125 -8.5 7.59375 -8.5 C 8.988281 -8.5 10.109375 -8.175781 10.953125 -7.53125 L 10.953125 -8.875 C 10.523438 -9.425781 10.109375 -9.789062 9.703125 -9.96875 C 9.296875 -10.15625 8.742188 -10.238281 8.046875 -10.21875 C 6.472656 -10.195312 5.03125 -9.910156 3.71875 -9.359375 C 3.132812 -9.117188 2.5625 -8.898438 2 -8.703125 L 2 -9.78125 C 2.132812 -9.894531 2.320312 -10.054688 2.5625 -10.265625 C 2.601562 -10.316406 2.628906 -10.347656 2.640625 -10.359375 L 2.640625 -14.140625 L -0.359375 -14.140625 L -0.359375 -15.890625 L 14.3125 -15.890625 Z M 10.953125 -4.859375 C 10.953125 -5.296875 10.441406 -5.679688 9.421875 -6.015625 C 8.566406 -6.304688 7.859375 -6.453125 7.296875 -6.453125 C 5.234375 -6.453125 3.582031 -5.707031 2.34375 -4.21875 C 1.84375 -3.625 1.59375 -3.132812 1.59375 -2.75 C 1.800781 -2.039062 2.609375 -1.6875 4.015625 -1.6875 C 5.828125 -1.6875 7.488281 -2.140625 9 -3.046875 C 10.300781 -3.835938 10.953125 -4.441406 10.953125 -4.859375 Z M 10.953125 -4.859375 "/></g></g><g transform="translate(143.365031, 198.328537)"><g><path d="M 15.59375 -14.140625 L -0.140625 -14.140625 L -0.140625 -15.890625 L 15.59375 -15.890625 Z M 12.453125 -7.703125 C 12.453125 -10.046875 11.34375 -11.21875 9.125 -11.21875 C 7.488281 -11.21875 6.117188 -10.359375 5.015625 -8.640625 C 4.035156 -7.117188 3.546875 -5.5 3.546875 -3.78125 L 3.546875 0.484375 L 1.140625 -0.78125 L 1.140625 -11.796875 L 3.65625 -11.796875 L 3.65625 -10.046875 L 4.96875 -11.03125 C 6.113281 -11.894531 7.328125 -12.328125 8.609375 -12.328125 C 10.347656 -12.328125 11.789062 -11.65625 12.9375 -10.3125 C 14.007812 -9.039062 14.546875 -7.519531 14.546875 -5.75 C 14.546875 -3.539062 13.609375 -1.414062 11.734375 0.625 L 8.90625 -1.140625 C 9.78125 -2.015625 10.523438 -2.816406 11.140625 -3.546875 C 12.015625 -4.578125 12.453125 -5.960938 12.453125 -7.703125 Z M 12.453125 -7.703125 "/></g></g><g transform="translate(158.73124, 198.328537)"><g><path d="M 14.890625 -14.140625 L 13.28125 -14.140625 L 13.28125 -8.578125 C 12.707031 -8.921875 11.878906 -9.21875 10.796875 -9.46875 C 9.773438 -9.695312 8.894531 -9.8125 8.15625 -9.8125 C 6.375 -9.8125 4.875 -9.492188 3.65625 -8.859375 C 2.976562 -8.503906 2.640625 -8.03125 2.640625 -7.4375 C 2.640625 -6.65625 3.050781 -6.265625 3.875 -6.265625 C 4.363281 -6.265625 5.007812 -6.410156 5.8125 -6.703125 C 6.332031 -6.890625 7 -7.125 7.8125 -7.40625 C 8.15625 -7.53125 8.757812 -7.59375 9.625 -7.59375 C 11.3125 -7.59375 12.570312 -7.066406 13.40625 -6.015625 C 13.800781 -5.523438 14 -4.941406 14 -4.265625 C 14 -2.710938 13.023438 -1.488281 11.078125 -0.59375 C 10.265625 -0.226562 9.492188 -0.0195312 8.765625 0.03125 C 9.460938 0.726562 10.128906 1.078125 10.765625 1.078125 C 10.972656 1.078125 11.191406 1.050781 11.421875 1 L 12.90625 3.40625 C 12.601562 3.675781 11.984375 3.8125 11.046875 3.8125 C 10.285156 3.8125 9.640625 3.550781 9.109375 3.03125 C 8.828125 2.75 8.425781 2.160156 7.90625 1.265625 C 7.46875 0.492188 7.101562 0.101562 6.8125 0.09375 C 5.007812 0.0390625 3.617188 -0.285156 2.640625 -0.890625 C 2.023438 -1.273438 1.71875 -1.800781 1.71875 -2.46875 C 1.71875 -3.28125 2.203125 -3.6875 3.171875 -3.6875 C 3.535156 -3.6875 4.289062 -3.40625 5.4375 -2.84375 C 6.582031 -2.28125 7.53125 -2 8.28125 -2 C 9.757812 -2 11.148438 -2.351562 12.453125 -3.0625 C 13.085938 -3.40625 13.40625 -3.828125 13.40625 -4.328125 C 13.40625 -5.066406 12.816406 -5.4375 11.640625 -5.4375 C 11.285156 -5.4375 10.117188 -5.171875 8.140625 -4.640625 C 6.984375 -4.328125 6.269531 -4.171875 6 -4.171875 C 4.445312 -4.171875 3.171875 -4.90625 2.171875 -6.375 C 1.679688 -7.070312 1.4375 -7.828125 1.4375 -8.640625 C 1.425781 -10.296875 2.550781 -11.410156 4.8125 -11.984375 C 5.75 -12.210938 6.625 -12.328125 7.4375 -12.328125 C 8.375 -12.328125 9.703125 -12.097656 11.421875 -11.640625 L 11.421875 -14.140625 L -0.234375 -14.140625 L -0.234375 -15.890625 L 14.890625 -15.890625 Z M 14.890625 -14.140625 "/></g></g><g transform="translate(173.467568, 198.328537)"><g><path d="M 16.078125 -14.140625 L 4.265625 -14.140625 L 4.265625 -9.734375 C 5.328125 -10.890625 6.3125 -11.632812 7.21875 -11.96875 C 7.726562 -12.15625 8.300781 -12.25 8.9375 -12.25 C 11.320312 -12.25 13.101562 -11.078125 14.28125 -8.734375 C 14.800781 -7.703125 15.0625 -6.691406 15.0625 -5.703125 C 15.0625 -3.878906 14.3125 -2.238281 12.8125 -0.78125 C 12.320312 -0.289062 11.953125 0.046875 11.703125 0.234375 L 9.296875 -1.203125 C 9.898438 -1.835938 10.59375 -2.617188 11.375 -3.546875 C 12.238281 -4.585938 12.675781 -5.90625 12.6875 -7.5 C 12.695312 -8.445312 12.484375 -9.238281 12.046875 -9.875 C 11.546875 -10.613281 10.84375 -10.972656 9.9375 -10.953125 C 9.09375 -10.929688 8.191406 -10.613281 7.234375 -10 C 6.378906 -9.457031 5.664062 -8.804688 5.09375 -8.046875 C 4.476562 -7.222656 4.171875 -6.429688 4.171875 -5.671875 L 4.171875 0.140625 L 1.4375 -1.3125 L 1.4375 -14.140625 L -0.171875 -14.140625 L -0.171875 -15.890625 L 1.4375 -15.890625 C 1.4375 -18.765625 0.6875 -21.21875 -0.8125 -23.25 C -1.707031 -24.46875 -2.535156 -25.328125 -3.296875 -25.828125 L -0.34375 -25.859375 C 1.300781 -24.953125 2.609375 -23.015625 3.578125 -20.046875 C 4.035156 -18.628906 4.265625 -17.242188 4.265625 -15.890625 L 16.078125 -15.890625 Z M 16.078125 -14.140625 "/></g></g><g transform="translate(189.390418, 198.328537)"><g><path d="M 9.9375 -14.140625 L -0.140625 -14.140625 L -0.140625 -15.890625 L 9.9375 -15.890625 Z M 8.90625 -8.703125 C 8.832031 -8.609375 8.582031 -8.4375 8.15625 -8.1875 L 7.140625 -7.59375 L 1.203125 -7.59375 L 2.9375 -8.703125 Z M 8.90625 -8.703125 "/></g></g><g transform="translate(199.146277, 198.328537)"><g><path d="M 14.3125 -14.140625 L 4.5625 -14.140625 L 4.5625 -11.796875 C 4.59375 -11.796875 4.628906 -11.773438 4.671875 -11.734375 C 4.710938 -11.691406 4.75 -11.671875 4.78125 -11.671875 C 4.695312 -11.671875 4.648438 -11.675781 4.640625 -11.6875 C 4.640625 -11.738281 5.367188 -11.894531 6.828125 -12.15625 C 7.359375 -12.257812 7.890625 -12.3125 8.421875 -12.3125 C 10.617188 -12.3125 12.03125 -11.691406 12.65625 -10.453125 C 13.070312 -9.640625 13.28125 -7.988281 13.28125 -5.5 L 13.28125 0.140625 C 13.082031 0.0664062 12.304688 -0.25 10.953125 -0.8125 C 10.953125 -1.125 10.890625 -1.320312 10.765625 -1.40625 C 10.242188 -1.101562 9.820312 -0.875 9.5 -0.71875 C 8.4375 -0.21875 7.207031 0.03125 5.8125 0.03125 C 3.894531 0.03125 2.410156 -0.570312 1.359375 -1.78125 C 0.847656 -2.375 0.59375 -3.03125 0.59375 -3.75 C 0.59375 -4.5625 0.992188 -5.367188 1.796875 -6.171875 C 3.347656 -7.722656 5.28125 -8.5 7.59375 -8.5 C 8.988281 -8.5 10.109375 -8.175781 10.953125 -7.53125 L 10.953125 -8.875 C 10.523438 -9.425781 10.109375 -9.789062 9.703125 -9.96875 C 9.296875 -10.15625 8.742188 -10.238281 8.046875 -10.21875 C 6.472656 -10.195312 5.03125 -9.910156 3.71875 -9.359375 C 3.132812 -9.117188 2.5625 -8.898438 2 -8.703125 L 2 -9.78125 C 2.132812 -9.894531 2.320312 -10.054688 2.5625 -10.265625 C 2.601562 -10.316406 2.628906 -10.347656 2.640625 -10.359375 L 2.640625 -14.140625 L -0.359375 -14.140625 L -0.359375 -15.890625 L 14.3125 -15.890625 Z M 10.953125 -4.859375 C 10.953125 -5.296875 10.441406 -5.679688 9.421875 -6.015625 C 8.566406 -6.304688 7.859375 -6.453125 7.296875 -6.453125 C 5.234375 -6.453125 3.582031 -5.707031 2.34375 -4.21875 C 1.84375 -3.625 1.59375 -3.132812 1.59375 -2.75 C 1.800781 -2.039062 2.609375 -1.6875 4.015625 -1.6875 C 5.828125 -1.6875 7.488281 -2.140625 9 -3.046875 C 10.300781 -3.835938 10.953125 -4.441406 10.953125 -4.859375 Z M 10.953125 -4.859375 "/></g></g><g transform="translate(213.399206, 198.328537)"><g><path d="M 14.890625 -14.140625 L 13.28125 -14.140625 L 13.28125 -8.578125 C 12.707031 -8.921875 11.878906 -9.21875 10.796875 -9.46875 C 9.773438 -9.695312 8.894531 -9.8125 8.15625 -9.8125 C 6.375 -9.8125 4.875 -9.492188 3.65625 -8.859375 C 2.976562 -8.503906 2.640625 -8.03125 2.640625 -7.4375 C 2.640625 -6.65625 3.050781 -6.265625 3.875 -6.265625 C 4.363281 -6.265625 5.007812 -6.410156 5.8125 -6.703125 C 6.332031 -6.890625 7 -7.125 7.8125 -7.40625 C 8.15625 -7.53125 8.757812 -7.59375 9.625 -7.59375 C 11.3125 -7.59375 12.570312 -7.066406 13.40625 -6.015625 C 13.800781 -5.523438 14 -4.941406 14 -4.265625 C 14 -2.710938 13.023438 -1.488281 11.078125 -0.59375 C 10.265625 -0.226562 9.492188 -0.0195312 8.765625 0.03125 C 9.460938 0.726562 10.128906 1.078125 10.765625 1.078125 C 10.972656 1.078125 11.191406 1.050781 11.421875 1 L 12.90625 3.40625 C 12.601562 3.675781 11.984375 3.8125 11.046875 3.8125 C 10.285156 3.8125 9.640625 3.550781 9.109375 3.03125 C 8.828125 2.75 8.425781 2.160156 7.90625 1.265625 C 7.46875 0.492188 7.101562 0.101562 6.8125 0.09375 C 5.007812 0.0390625 3.617188 -0.285156 2.640625 -0.890625 C 2.023438 -1.273438 1.71875 -1.800781 1.71875 -2.46875 C 1.71875 -3.28125 2.203125 -3.6875 3.171875 -3.6875 C 3.535156 -3.6875 4.289062 -3.40625 5.4375 -2.84375 C 6.582031 -2.28125 7.53125 -2 8.28125 -2 C 9.757812 -2 11.148438 -2.351562 12.453125 -3.0625 C 13.085938 -3.40625 13.40625 -3.828125 13.40625 -4.328125 C 13.40625 -5.066406 12.816406 -5.4375 11.640625 -5.4375 C 11.285156 -5.4375 10.117188 -5.171875 8.140625 -4.640625 C 6.984375 -4.328125 6.269531 -4.171875 6 -4.171875 C 4.445312 -4.171875 3.171875 -4.90625 2.171875 -6.375 C 1.679688 -7.070312 1.4375 -7.828125 1.4375 -8.640625 C 1.425781 -10.296875 2.550781 -11.410156 4.8125 -11.984375 C 5.75 -12.210938 6.625 -12.328125 7.4375 -12.328125 C 8.375 -12.328125 9.703125 -12.097656 11.421875 -11.640625 L 11.421875 -14.140625 L -0.234375 -14.140625 L -0.234375 -15.890625 L 14.890625 -15.890625 Z M 14.890625 -14.140625 "/></g></g><g transform="translate(228.135533, 198.328537)"><g><path d="M 12.96875 -14.140625 L 5.546875 -14.140625 L 5.546875 -2.34375 C 5.546875 -2.007812 5.65625 -1.6875 5.875 -1.375 C 6.101562 -1.03125 6.375 -0.859375 6.6875 -0.859375 C 8.144531 -0.859375 8.875 -2.363281 8.875 -5.375 L 11.828125 -3.6875 C 10.703125 -1.195312 8.960938 0.0390625 6.609375 0.03125 C 5.242188 0.0195312 4.175781 -0.601562 3.40625 -1.84375 C 3.082031 -2.382812 2.921875 -2.921875 2.921875 -3.453125 L 2.921875 -14.140625 L -0.140625 -14.140625 L -0.140625 -15.890625 L 2.921875 -15.890625 L 2.921875 -20.8125 L 5.546875 -18.984375 L 5.546875 -15.890625 L 12.96875 -15.890625 Z M 12.96875 -14.140625 "/></g></g><g transform="translate(240.90897, 198.328537)"><g><path d="M 14.65625 -14.140625 L -0.140625 -14.140625 L -0.140625 -15.890625 L 14.65625 -15.890625 Z M 13.453125 -8.875 C 13.453125 -8.300781 13.101562 -7.648438 12.40625 -6.921875 C 11.820312 -6.304688 11.207031 -5.847656 10.5625 -5.546875 L 8.359375 -8.046875 C 9.023438 -8.097656 9.65625 -8.34375 10.25 -8.78125 C 10.9375 -9.257812 11.28125 -9.8125 11.28125 -10.4375 C 11.28125 -10.769531 11.066406 -11.054688 10.640625 -11.296875 C 10.265625 -11.503906 9.894531 -11.609375 9.53125 -11.609375 C 8.78125 -11.609375 7.976562 -11.25 7.125 -10.53125 C 5.375 -9.0625 4.5 -7.441406 4.5 -5.671875 L 4.5 0.546875 L 1.6875 -0.921875 L 1.6875 -11.765625 L 4.53125 -11.765625 L 4.53125 -10.65625 C 4.945312 -11.070312 5.816406 -11.507812 7.140625 -11.96875 C 7.773438 -12.195312 8.4375 -12.3125 9.125 -12.3125 C 10.539062 -12.3125 11.742188 -11.765625 12.734375 -10.671875 C 13.210938 -10.148438 13.453125 -9.550781 13.453125 -8.875 Z M 13.453125 -8.875 "/></g></g><g transform="translate(255.308383, 198.328537)"><g><path d="M 15.625 -14.140625 L 12.328125 -14.140625 L 12.328125 -10.109375 C 12.328125 -10.015625 12.71875 -9.578125 13.5 -8.796875 C 14.101562 -8.078125 14.40625 -7.046875 14.40625 -5.703125 C 14.40625 -3.460938 13.410156 -1.804688 11.421875 -0.734375 C 10.484375 -0.222656 9.460938 0.03125 8.359375 0.03125 C 6.765625 0.03125 5.113281 -0.675781 3.40625 -2.09375 C 1.632812 -3.582031 0.75 -5.191406 0.75 -6.921875 C 0.75 -7.722656 1.035156 -8.554688 1.609375 -9.421875 C 2.128906 -10.191406 2.753906 -10.832031 3.484375 -11.34375 C 4.367188 -11.945312 5.429688 -12.25 6.671875 -12.25 C 7.347656 -12.25 8.359375 -12.066406 9.703125 -11.703125 C 9.753906 -11.703125 9.78125 -11.742188 9.78125 -11.828125 L 9.78125 -14.140625 L -0.265625 -14.140625 L -0.265625 -15.890625 L 15.625 -15.890625 Z M 12.25 -7.640625 C 12.25 -9.023438 11.644531 -9.953125 10.4375 -10.421875 C 9.976562 -10.585938 9.585938 -10.671875 9.265625 -10.671875 C 8.054688 -10.671875 6.753906 -10.128906 5.359375 -9.046875 C 3.734375 -7.785156 2.921875 -6.171875 2.921875 -4.203125 C 2.921875 -3.285156 3.445312 -2.535156 4.5 -1.953125 C 4.976562 -1.679688 5.460938 -1.546875 5.953125 -1.546875 C 7.160156 -1.546875 8.488281 -2.132812 9.9375 -3.3125 C 11.476562 -4.5625 12.25 -6.003906 12.25 -7.640625 Z M 12.25 -7.640625 "/></g></g><g transform="translate(270.674593, 198.328537)"><g><path d="M 6.46875 -14.140625 L 4.921875 -14.140625 L 4.921875 -15.890625 L 6.46875 -15.890625 Z M 1.46875 -14.140625 L -0.203125 -14.140625 L -0.203125 -15.890625 L 1.46875 -15.890625 Z M 4.4375 -17.671875 L 4.4375 0.359375 C 4.34375 0.335938 4.21875 0.285156 4.0625 0.203125 L 3.296875 -0.1875 C 2.429688 -0.632812 1.972656 -0.859375 1.921875 -0.859375 L 1.921875 -17.640625 C 1.921875 -18.660156 1.71875 -19.75 1.3125 -20.90625 C 0.757812 -22.519531 -0.101562 -23.984375 -1.28125 -25.296875 L -2.203125 -26.34375 L 0.921875 -26.34375 C 2.546875 -24.71875 3.609375 -22.726562 4.109375 -20.375 C 4.328125 -19.375 4.4375 -18.472656 4.4375 -17.671875 Z M 4.4375 -17.671875 "/></g></g><g transform="translate(276.914827, 198.328537)"><g><path d="M 15.625 -14.140625 L 12.328125 -14.140625 L 12.328125 -10.109375 C 12.328125 -10.015625 12.71875 -9.578125 13.5 -8.796875 C 14.101562 -8.078125 14.40625 -7.046875 14.40625 -5.703125 C 14.40625 -3.460938 13.410156 -1.804688 11.421875 -0.734375 C 10.484375 -0.222656 9.460938 0.03125 8.359375 0.03125 C 6.765625 0.03125 5.113281 -0.675781 3.40625 -2.09375 C 1.632812 -3.582031 0.75 -5.191406 0.75 -6.921875 C 0.75 -7.722656 1.035156 -8.554688 1.609375 -9.421875 C 2.128906 -10.191406 2.753906 -10.832031 3.484375 -11.34375 C 4.367188 -11.945312 5.429688 -12.25 6.671875 -12.25 C 7.347656 -12.25 8.359375 -12.066406 9.703125 -11.703125 C 9.753906 -11.703125 9.78125 -11.742188 9.78125 -11.828125 L 9.78125 -14.140625 L -0.265625 -14.140625 L -0.265625 -15.890625 L 15.625 -15.890625 Z M 12.25 -7.640625 C 12.25 -9.023438 11.644531 -9.953125 10.4375 -10.421875 C 9.976562 -10.585938 9.585938 -10.671875 9.265625 -10.671875 C 8.054688 -10.671875 6.753906 -10.128906 5.359375 -9.046875 C 3.734375 -7.785156 2.921875 -6.171875 2.921875 -4.203125 C 2.921875 -3.285156 3.445312 -2.535156 4.5 -1.953125 C 4.976562 -1.679688 5.460938 -1.546875 5.953125 -1.546875 C 7.160156 -1.546875 8.488281 -2.132812 9.9375 -3.3125 C 11.476562 -4.5625 12.25 -6.003906 12.25 -7.640625 Z M 12.25 -7.640625 "/></g></g><g transform="translate(292.281036, 198.328537)"><g><path d="M 15.234375 2.375 C 15.234375 4.1875 14.351562 5.09375 12.59375 5.09375 C 11.8125 5.09375 10.679688 4.722656 9.203125 3.984375 C 7.554688 3.160156 6.175781 2.75 5.0625 2.75 C 2.675781 2.75 0.421875 3.691406 -1.703125 5.578125 C -2.710938 6.484375 -3.507812 7.554688 -4.09375 8.796875 C -4.125 8.640625 -4.140625 8.390625 -4.140625 8.046875 C -4.140625 6.867188 -3.789062 5.703125 -3.09375 4.546875 C -2.445312 3.472656 -1.613281 2.570312 -0.59375 1.84375 C 0.5625 1.03125 1.878906 0.625 3.359375 0.625 C 4.367188 0.625 5.25 0.796875 6 1.140625 C 6.40625 1.328125 7.179688 1.804688 8.328125 2.578125 C 9.296875 3.242188 10.039062 3.578125 10.5625 3.578125 C 11.851562 3.578125 12.878906 3.046875 13.640625 1.984375 C 13.972656 1.523438 14.140625 1.070312 14.140625 0.625 C 14.140625 -0.144531 13.90625 -0.789062 13.4375 -1.3125 C 12.96875 -1.832031 12.351562 -2.09375 11.59375 -2.09375 C 10.882812 -2.09375 9.722656 -1.738281 8.109375 -1.03125 C 6.503906 -0.320312 5.347656 0.03125 4.640625 0.03125 C 4.128906 0.03125 3.503906 -0.226562 2.765625 -0.75 C 1.242188 -1.832031 0.484375 -2.84375 0.484375 -3.78125 C 0.484375 -4.300781 0.769531 -4.773438 1.34375 -5.203125 C 1.863281 -5.597656 2.394531 -5.820312 2.9375 -5.875 L 2.96875 -6.03125 L 2.25 -7.046875 C 1.851562 -7.609375 1.65625 -8.21875 1.65625 -8.875 C 1.65625 -11.125 3.488281 -12.25 7.15625 -12.25 C 7.269531 -12.269531 7.347656 -12.359375 7.390625 -12.515625 L 7.390625 -14.140625 L -0.203125 -14.140625 L -0.203125 -15.890625 L 14.859375 -15.890625 L 14.859375 -14.140625 L 9.65625 -14.140625 L 9.65625 -11.671875 C 9.65625 -11.210938 9.785156 -10.929688 10.046875 -10.828125 C 10.210938 -10.828125 10.421875 -10.976562 10.671875 -11.28125 L 11.234375 -11.953125 C 11.378906 -12.097656 11.644531 -12.195312 12.03125 -12.25 C 12.644531 -12.25 13.226562 -11.894531 13.78125 -11.1875 C 14.039062 -10.863281 14.207031 -10.539062 14.28125 -10.21875 L 12.75 -8.46875 C 12.726562 -8.914062 12.632812 -9.328125 12.46875 -9.703125 C 12.238281 -10.191406 11.945312 -10.4375 11.59375 -10.4375 C 11.445312 -10.4375 11.28125 -10.375 11.09375 -10.25 C 10.914062 -10.125 10.828125 -10 10.828125 -9.875 C 10.828125 -9.726562 10.890625 -9.550781 11.015625 -9.34375 C 11.160156 -9.101562 11.242188 -8.953125 11.265625 -8.890625 C 11.335938 -8.671875 11.375 -8.390625 11.375 -8.046875 C 11.375 -6.722656 10.832031 -5.828125 9.75 -5.359375 C 9.039062 -5.046875 7.921875 -4.890625 6.390625 -4.890625 C 4.429688 -4.890625 3.097656 -4.457031 2.390625 -3.59375 C 2.109375 -3.25 1.972656 -2.96875 1.984375 -2.75 C 1.992188 -2.457031 2.140625 -2.203125 2.421875 -1.984375 C 2.703125 -1.765625 2.992188 -1.65625 3.296875 -1.65625 C 3.847656 -1.65625 4.914062 -2.039062 6.5 -2.8125 C 8.363281 -3.71875 9.867188 -4.179688 11.015625 -4.203125 C 12.054688 -4.222656 12.9375 -3.757812 13.65625 -2.8125 C 14.226562 -2.0625 14.640625 -1.101562 14.890625 0.0625 C 15.117188 1.082031 15.234375 1.851562 15.234375 2.375 Z M 9.53125 -9.390625 C 9.53125 -10.566406 8.898438 -11.15625 7.640625 -11.15625 C 6.628906 -11.15625 5.671875 -10.800781 4.765625 -10.09375 C 3.785156 -9.332031 3.296875 -8.457031 3.296875 -7.46875 C 3.296875 -6.9375 3.503906 -6.476562 3.921875 -6.09375 C 4.335938 -5.707031 4.8125 -5.515625 5.34375 -5.515625 C 5.90625 -5.515625 6.535156 -5.71875 7.234375 -6.125 C 7.859375 -6.488281 8.378906 -6.910156 8.796875 -7.390625 C 9.285156 -7.972656 9.53125 -8.640625 9.53125 -9.390625 Z M 9.53125 -9.390625 "/></g></g><g transform="translate(306.885528, 198.328537)"><g><path d="M 16.828125 -15.890625 L 16.796875 -14.140625 L 4.4375 -14.140625 L 4.46875 -5.5 C 4.46875 -4.226562 4.6875 -3.300781 5.125 -2.71875 C 5.625 -2.082031 6.492188 -1.738281 7.734375 -1.6875 C 8.523438 -1.644531 9.316406 -1.90625 10.109375 -2.46875 C 10.804688 -2.945312 11.382812 -3.566406 11.84375 -4.328125 C 12.34375 -5.140625 12.59375 -5.9375 12.59375 -6.71875 L 12.5625 -12.25 L 15.625 -11.1875 L 15.625 3.8125 C 15.625 5.632812 14.785156 7.125 13.109375 8.28125 C 11.554688 9.34375 9.734375 9.875 7.640625 9.875 C 4.109375 9.875 1.597656 8.910156 0.109375 6.984375 C -0.503906 6.203125 -0.8125 5.535156 -0.8125 4.984375 C -0.800781 3.765625 -0.113281 2.738281 1.25 1.90625 C 2.445312 1.175781 3.691406 0.8125 4.984375 0.8125 L 6.84375 3.296875 C 5.164062 3.410156 3.660156 3.765625 2.328125 4.359375 C 1.460938 4.753906 1.03125 5.257812 1.03125 5.875 C 1.132812 6.757812 1.800781 7.546875 3.03125 8.234375 C 3.757812 8.640625 4.707031 8.84375 5.875 8.84375 C 8.539062 8.84375 10.550781 7.976562 11.90625 6.25 C 12.550781 5.4375 12.875 4.484375 12.875 3.390625 L 12.875 -2.578125 C 12.238281 -1.546875 10.546875 -1.03125 7.796875 -1.03125 C 5.484375 -1.03125 3.726562 -1.820312 2.53125 -3.40625 C 1.945312 -4.175781 1.65625 -5.050781 1.65625 -6.03125 L 1.65625 -14.140625 L -0.421875 -14.140625 L -0.421875 -15.890625 Z M 16.828125 -15.890625 "/></g></g></g></svg>