<?xml version="1.0" encoding="utf-8"?>
<!-- Svg Vector Icons : http://www.onlinewebfonts.com/icon -->
<!DOCTYPE svg PUBLIC "-//W3C//DTD SVG 1.1//EN" "http://www.w3.org/Graphics/SVG/1.1/DTD/svg11.dtd">
<svg version="1.1" xmlns="http://www.w3.org/2000/svg" xmlns:xlink="http://www.w3.org/1999/xlink" x="0px" y="0px" viewBox="0 0 1000 1000" enable-background="new 0 0 1000 1000" xml:space="preserve">
<metadata> Svg Vector Icons : http://www.onlinewebfonts.com/icon </metadata>
<g><g transform="translate(0.000000,511.000000) scale(0.100000,-0.100000)"><path d="M9595.1,4321.4c-691.9-143-2044.1-447.9-2092.5-473.2c-119.9-63.1-94.6-113.6,225-435.3l290.2-290.2L6455.3,1560.2L4894.8-0.2l-477.4,475.3c-265,262.9-502.6,487.9-530,502.6c-122,63.1-82,98.8-1985.2-1804.4L100-2629v-98.8c0-94.6,4.2-100.9,206.1-300.7c111.5-113.6,233.4-222.9,267.1-243.9c149.3-92.5,52.6-176.7,1707.6,1478.4L3801.3-273.6l490-490c458.5-458.5,496.3-492.1,580.4-502.6l90.4-12.6L6817,576c1017.8,1017.9,1863.3,1852.7,1873.8,1852.7c12.6,0,134.6-113.6,273.4-254.5c334.4-334.4,393.3-365.9,460.6-233.4c44.2,84.1,475.3,2077.8,475.3,2195.5C9900,4289.9,9784.3,4359.3,9595.1,4321.4z"/><path d="M7961,1047.1l-731.8-731.8v-2138.8v-2140.9l61-67.3l61-69.4l591-6.3c628.8-6.3,685.6,0,738.1,100.9c14.7,27.3,18.9,965.3,16.8,2910.5l-6.3,2872.7L7961,1047.1z"/><path d="M6047.3-866.7l-731.8-729.7v-1171.4c0-816,6.3-1188.2,23.1-1223.9c46.3-103.1,86.2-109.4,725.5-109.4h593.1l54.7,50.5c29.4,27.3,58.9,79.9,65.2,115.7c6.3,35.7,8.4,904.3,6.3,1930.6L6777-139L6047.3-866.7z"/><path d="M3553.1-1091.7l-172.4-176.6l2.1-1310.2c0-959,6.3-1331.2,25.2-1385.9c46.3-136.7,96.7-147.2,715-147.2c576.2,0,658.2,12.6,706.6,100.9c16.8,29.5,23.1,401.7,23.1,1167.2v1123l-103,10.5c-185.1,18.9-283.9,86.2-656.1,452.1C3902.2-1068.5,3740.3-915,3736.1-915C3729.8-915,3647.8-994.9,3553.1-1091.7z"/><path d="M2196.7-2446L1467-3175.8V-3569v-395.4l61-67.3l61-69.4H2203h614.1l61,69.4l61,67.3v1125.1c0,618.3-2.1,1125.1-6.3,1125.1C2930.6-1714.2,2600.5-2042.3,2196.7-2446z"/></g></g>
</svg>